<?xml version="1.0" encoding="iso-8859-1"?>
<!-- Generator: Adobe Illustrator 24.1.2, SVG Export Plug-In . SVG Version: 6.00 Build 0)  -->
<svg version="1.1" id="Layer_1" xmlns="http://www.w3.org/2000/svg" xmlns:xlink="http://www.w3.org/1999/xlink" x="0px" y="0px"
	 viewBox="0 0 500 500" style="enable-background:new 0 0 500 500;" xml:space="preserve">
<g>
	<g>
		<path style="fill:#41B883;" d="M180.232,420.84l-42.052-83.167c-11.389,1.655-23.654,2.897-37.233,2.897H73.789v80.685H13.778
			V79.896h79.722c113.451,0,155.064,62.479,155.064,130.336c0,43.032-17.521,83.995-56.945,107.993l60.449,102.614H180.232z
			 M102.699,285.538c56.945,0,87.169-30.619,87.169-75.306c0-46.342-31.101-74.892-87.169-74.892h-28.91v150.197H102.699z"/>
		<path style="fill:#41B883;" d="M275.724,250.368C275.724,155.616,368.034,77,487,77v56.686
			c-82.437,0-143.648,52.548-143.648,116.682c0,64.134,61.211,116.682,143.648,116.682v56.272
			C368.034,423.323,275.724,345.121,275.724,250.368z"/>
	</g>
	<path style="fill:#35495E;" d="M200.223,420.84l-39.081-83.167c-10.584,1.655-21.983,2.897-34.602,2.897H101.3v80.685H45.528
		V79.896h74.09c105.436,0,144.11,62.479,144.11,130.336c0,43.032-16.284,83.995-52.922,107.993l56.178,102.614H200.223z
		 M128.168,285.538c52.922,0,81.011-30.619,81.011-75.306c0-46.342-28.903-74.892-81.011-74.892H101.3v150.197H128.168z"/>
	<path style="fill:#35495E;" d="M312.955,250.368C312.955,155.616,389.081,77,487.189,77v56.686
		c-67.984,0-118.463,52.548-118.463,116.682c0,64.134,50.479,116.682,118.463,116.682v56.272
		C389.081,423.323,312.955,345.121,312.955,250.368z"/>
</g>
</svg>
